# xmcd
#
# Track frame offsets: 
#        150
#        15900
#        30075
#        45207
#        58460
#        76847
#        91367
#        108452
#        123900
#        142055
#
# Disc length: 2112 seconds
#
# Revision: 0
# Processed by: cddbd v1.4PL0 Copyright (c) Steve Scherf et al.
# Submitted via: ExactAudioCopy v0.90b2
#
DISCID=71083e0a
DTITLE=Steve Wariner - One Good Night Deserves Another
DYEAR=1900
DGENRE=Country
TTITLE0=Heart Trouble
TTITLE1=What I Didn't Do
TTITLE2=You Can't Cut Me Any Deeper
TTITLE3=Your Love Has Got A Hold On Me
TTITLE4=Some Fools Never Learn
TTITLE5=One Good Night Deserves Another
TTITLE6=As Long As Love's Been Around
TTITLE7=Gamblin' On Romance
TTITLE8=It's Only A Heartache
TTITLE9=I Never Thought I'd See The Night
EXTD=
EXTT0=
EXTT1=
EXTT2=
EXTT3=
EXTT4=
EXTT5=
EXTT6=
EXTT7=
EXTT8=
EXTT9=
PLAYORDER=
